CD_DA
CD_TEXT { LANGUAGE_MAP { 0:EN }
    LANGUAGE 0 {
        TITLE "Desecration Smile (CD2)"
        PERFORMER "Red Hot Chili Peppers"
        DISC_ID "1D03B803"
}}

//Track 1
TRACK AUDIO
    CD_TEXT { LANGUAGE 0 {
        TITLE "Desecration Smile"
        PERFORMER "Red Hot Chili Peppers"
    }}
    AUDIOFILE "01 - Desecration Smile.wav" 00:00:00 05:02:47

//Track 2
TRACK AUDIO
    CD_TEXT { LANGUAGE 0 {
        TITLE "Funky Monks (live)"
        PERFORMER "Red Hot Chili Peppers"
    }}
    AUDIOFILE "01 - Desecration Smile.wav" 05:02:47
    START
    AUDIOFILE "02 - Funky Monks (live).wav" 00:00:00 06:29:28

//Track 3
TRACK AUDIO
    CD_TEXT { LANGUAGE 0 {
        TITLE "Save This Lady"
        PERFORMER "Red Hot Chili Peppers"
    }}
    AUDIOFILE "02 - Funky Monks (live).wav" 06:29:28
    START
    AUDIOFILE "03 - Save This Lady.wav" 00:00:00